<?xml version="1.0" standalone="no"?>
<!DOCTYPE svg PUBLIC "-//W3C//DTD SVG 20010904//EN"
 "http://www.w3.org/TR/2001/REC-SVG-20010904/DTD/svg10.dtd">
<svg version="1.0" xmlns="http://www.w3.org/2000/svg"
 width="270.000000pt" height="50.000000pt" viewBox="0 0 270.000000 50.000000"
 preserveAspectRatio="xMidYMid meet">

<g transform="translate(0.000000,50.000000) scale(0.100000,-0.100000)"
fill="#000000" stroke="none">
<path d="M166 418 c-182 -39 -182 -307 0 -346 113 -24 216 58 216 173 0 115
-103 197 -216 173z m14 -128 c0 -25 4 -30 25 -30 21 0 25 5 25 30 0 23 4 30
20 30 18 0 20 -7 20 -80 0 -73 -2 -80 -20 -80 -16 0 -20 7 -20 30 0 25 -4 30
-25 30 -21 0 -25 -5 -25 -30 0 -25 -4 -30 -25 -30 -25 0 -25 1 -25 80 0 79 0
80 25 80 21 0 25 -5 25 -30z"/>
<path d="M500 250 c0 -89 0 -90 25 -90 22 0 25 4 25 35 0 32 2 35 30 35 28 0
30 -3 30 -35 0 -31 3 -35 25 -35 25 0 25 1 25 90 0 89 0 90 -25 90 -21 0 -25
-5 -25 -30 0 -27 -3 -30 -30 -30 -27 0 -30 3 -30 30 0 25 -4 30 -25 30 -25 0
-25 -1 -25 -90z"/>
<path d="M680 250 l0 -90 55 0 c48 0 55 2 55 20 0 16 -7 20 -30 20 -20 0 -30
5 -30 15 0 10 10 15 30 15 23 0 30 4 30 20 0 16 -7 20 -30 20 -20 0 -30 5 -30
15 0 10 10 15 30 15 23 0 30 4 30 20 0 18 -7 20 -55 20 l-55 0 0 -90z"/>
<path d="M810 250 l0 -90 55 0 c48 0 55 2 55 20 0 16 -7 20 -30 20 l-30 0 0
70 c0 68 -1 70 -25 70 -25 0 -25 -1 -25 -90z"/>
<path d="M930 250 c0 -89 0 -90 25 -90 21 0 25 5 25 30 0 25 4 30 23 30 39 0
67 27 67 65 0 43 -20 55 -89 55 l-51 0 0 -90z m85 30 c0 -8 -8 -16 -17 -18
-13 -2 -18 3 -18 18 0 15 5 20 18 18 9 -2 17 -10 17 -18z"/>
<path d="M1140 249 l0 -91 60 4 c38 3 66 11 79 22 43 39 34 122 -15 145 -14 6
-47 11 -74 11 l-50 0 0 -91z m98 39 c7 -7 12 -24 12 -38 0 -30 -17 -50 -42
-50 -15 0 -18 9 -18 50 0 41 3 50 18 50 10 0 23 -5 30 -12z"/>
<path d="M1320 250 l0 -90 55 0 c48 0 55 2 55 20 0 16 -7 20 -30 20 -20 0 -30
5 -30 15 0 9 9 15 25 15 18 0 25 5 25 20 0 15 -7 20 -25 20 -16 0 -25 6 -25
15 0 10 10 15 30 15 23 0 30 4 30 20 0 18 -7 20 -55 20 l-55 0 0 -90z"/>
<path d="M1463 330 c-18 -7 -23 -17 -23 -46 0 -31 4 -37 30 -47 17 -6 30 -18
30 -25 0 -11 -8 -13 -30 -8 -25 4 -30 2 -30 -13 0 -33 59 -42 98 -15 34 24 29
61 -13 85 -38 23 -37 44 2 36 20 -4 24 -1 21 17 -3 24 -47 32 -85 16z"/>
<path d="M1570 250 c0 -89 0 -90 25 -90 21 0 25 5 25 33 l1 32 27 -33 c19 -22
36 -32 55 -32 l28 0 -27 48 -27 48 27 42 26 42 -33 0 c-30 0 -36 -5 -52 -42
l-19 -43 -4 43 c-3 37 -6 42 -28 42 -24 0 -24 -1 -24 -90z"/>
<path d="M1813 330 c-18 -7 -23 -17 -23 -46 0 -31 4 -37 30 -47 17 -6 30 -18
30 -25 0 -11 -8 -13 -30 -8 -25 4 -30 2 -30 -13 0 -33 59 -42 98 -15 34 24 29
61 -13 85 -38 23 -37 44 2 36 20 -4 24 -1 21 17 -3 24 -47 32 -85 16z"/>
<path d="M1910 336 c0 -2 11 -29 25 -60 14 -31 25 -70 25 -86 0 -25 4 -30 25
-30 21 0 25 5 25 30 0 17 8 47 19 68 34 68 36 82 8 82 -19 0 -28 -8 -37 -32
l-13 -33 -10 33 c-8 26 -15 32 -38 32 -16 0 -29 -2 -29 -4z"/>
<path d="M2093 330 c-18 -7 -23 -17 -23 -46 0 -31 4 -37 30 -47 17 -6 30 -18
30 -25 0 -11 -8 -13 -30 -8 -25 4 -30 2 -30 -13 0 -33 59 -42 98 -15 34 24 29
61 -13 85 -38 23 -37 44 2 36 20 -4 24 -1 21 17 -3 24 -47 32 -85 16z"/>
<path d="M2190 320 c0 -15 7 -20 25 -20 24 0 25 -2 25 -70 0 -68 1 -70 25 -70
24 0 25 2 25 70 0 68 1 70 25 70 18 0 25 5 25 20 0 18 -7 20 -75 20 -68 0 -75
-2 -75 -20z"/>
<path d="M2350 250 l0 -90 55 0 c48 0 55 2 55 20 0 16 -7 20 -30 20 -20 0 -30
5 -30 15 0 9 9 15 25 15 18 0 25 5 25 20 0 15 -7 20 -25 20 -16 0 -25 6 -25
15 0 10 10 15 30 15 23 0 30 4 30 20 0 18 -7 20 -55 20 l-55 0 0 -90z"/>
<path d="M2470 251 c0 -90 0 -91 25 -91 23 0 25 3 26 53 1 56 2 55 19 -10 9
-36 15 -43 35 -43 24 0 28 7 48 95 3 11 5 -6 6 -37 1 -55 2 -58 26 -58 25 0
25 1 25 91 l0 90 -37 -3 c-36 -3 -39 -5 -47 -45 -5 -24 -12 -43 -16 -43 -4 0
-11 19 -16 43 -9 41 -10 42 -51 45 l-43 3 0 -90z"/>
</g>
</svg>
